<svg xmlns="http://www.w3.org/2000/svg" viewBox="0 0 512 512" xml:space="preserve">
  <path d="M458.419 17.86H53.581C24.037 17.86 0 41.897 0 71.442v369.116c0 29.545 24.037 53.581 53.581 53.581h404.837c29.546 0 53.581-24.037 53.581-53.581V71.442c.001-29.545-24.034-53.582-53.58-53.582zm17.86 422.698c0 9.848-8.011 17.86-17.86 17.86H53.581c-9.848 0-17.86-8.012-17.86-17.86V160.744h440.558v279.814zm0-315.535H35.721V71.442c0-9.848 8.012-17.86 17.86-17.86h404.837c9.849 0 17.86 8.012 17.86 17.86v53.581z"/>
  <path d="M256 71.442h202.419v35.721H256z"/>
  <circle cx="71.442" cy="89.302" r="23.814"/>
  <path d="m192.031 409.498 95.272-214.326 32.641 14.51-95.272 214.326zm-5.433-148.293-27.893-22.316-56.554 70.692 56.554 70.693 27.893-22.316-38.703-48.377zm166.697-22.316-27.893 22.316 38.703 48.376-38.703 48.377 27.893 22.316 56.554-70.693z"/>
</svg>

